<mxfile host="app.diagrams.net" agent="Mozilla/5.0 (Windows NT 10.0; Win64; x64) AppleWebKit/537.36 (KHTML, like Gecko) Chrome/128.0.0.0 Safari/537.36" version="24.7.7">
  <diagram name="Page-1" id="bVIYpNYCum-NgFT7vBQZ">
    <mxGraphModel dx="1434" dy="744" grid="1" gridSize="10" guides="1" tooltips="1" connect="1" arrows="1" fold="1" page="1" pageScale="1" pageWidth="850" pageHeight="1100" math="0" shadow="0">
      <root>
        <mxCell id="0" />
        <mxCell id="1" parent="0" />
        <mxCell id="zjo078G5RI25TfbY9cQv-72" style="edgeStyle=orthogonalEdgeStyle;rounded=0;orthogonalLoop=1;jettySize=auto;html=1;entryX=0;entryY=0.5;entryDx=0;entryDy=0;" parent="1" source="zjo078G5RI25TfbY9cQv-18" target="zjo078G5RI25TfbY9cQv-70" edge="1">
          <mxGeometry relative="1" as="geometry" />
        </mxCell>
        <mxCell id="zjo078G5RI25TfbY9cQv-73" style="edgeStyle=orthogonalEdgeStyle;rounded=0;orthogonalLoop=1;jettySize=auto;html=1;entryX=0;entryY=0.5;entryDx=0;entryDy=0;" parent="1" source="zjo078G5RI25TfbY9cQv-18" target="zjo078G5RI25TfbY9cQv-71" edge="1">
          <mxGeometry relative="1" as="geometry" />
        </mxCell>
        <mxCell id="zjo078G5RI25TfbY9cQv-18" value="Chuyên gia tư vấn" style="ellipse;whiteSpace=wrap;html=1;" parent="1" vertex="1">
          <mxGeometry x="335" y="350" width="90" height="60" as="geometry" />
        </mxCell>
        <mxCell id="zjo078G5RI25TfbY9cQv-49" style="edgeStyle=orthogonalEdgeStyle;rounded=0;orthogonalLoop=1;jettySize=auto;html=1;" parent="1" source="zjo078G5RI25TfbY9cQv-45" target="zjo078G5RI25TfbY9cQv-18" edge="1">
          <mxGeometry relative="1" as="geometry" />
        </mxCell>
        <mxCell id="zjo078G5RI25TfbY9cQv-59" style="edgeStyle=orthogonalEdgeStyle;rounded=0;orthogonalLoop=1;jettySize=auto;html=1;" parent="1" source="zjo078G5RI25TfbY9cQv-45" target="zjo078G5RI25TfbY9cQv-58" edge="1">
          <mxGeometry relative="1" as="geometry" />
        </mxCell>
        <mxCell id="Yxggnad04uX287QkhcIc-2" style="edgeStyle=orthogonalEdgeStyle;rounded=0;orthogonalLoop=1;jettySize=auto;html=1;entryX=0;entryY=0.5;entryDx=0;entryDy=0;" edge="1" parent="1" source="zjo078G5RI25TfbY9cQv-45" target="Yxggnad04uX287QkhcIc-1">
          <mxGeometry relative="1" as="geometry" />
        </mxCell>
        <mxCell id="zjo078G5RI25TfbY9cQv-45" value="Chức năng" style="rounded=1;whiteSpace=wrap;html=1;" parent="1" vertex="1">
          <mxGeometry x="120" y="290" width="120" height="60" as="geometry" />
        </mxCell>
        <mxCell id="zjo078G5RI25TfbY9cQv-86" style="edgeStyle=orthogonalEdgeStyle;rounded=0;orthogonalLoop=1;jettySize=auto;html=1;entryX=0;entryY=0.5;entryDx=0;entryDy=0;" parent="1" source="zjo078G5RI25TfbY9cQv-57" target="zjo078G5RI25TfbY9cQv-45" edge="1">
          <mxGeometry relative="1" as="geometry" />
        </mxCell>
        <mxCell id="zjo078G5RI25TfbY9cQv-57" value="&lt;div&gt;&lt;br&gt;&lt;/div&gt;&lt;div&gt;&lt;br&gt;&lt;/div&gt;&lt;div&gt;Guest&lt;/div&gt;" style="shape=actor;whiteSpace=wrap;html=1;" parent="1" vertex="1">
          <mxGeometry x="40" y="290" width="40" height="60" as="geometry" />
        </mxCell>
        <mxCell id="zjo078G5RI25TfbY9cQv-63" style="edgeStyle=orthogonalEdgeStyle;rounded=0;orthogonalLoop=1;jettySize=auto;html=1;entryX=0;entryY=0.5;entryDx=0;entryDy=0;" parent="1" source="zjo078G5RI25TfbY9cQv-58" target="zjo078G5RI25TfbY9cQv-60" edge="1">
          <mxGeometry relative="1" as="geometry" />
        </mxCell>
        <mxCell id="zjo078G5RI25TfbY9cQv-77" style="edgeStyle=orthogonalEdgeStyle;rounded=0;orthogonalLoop=1;jettySize=auto;html=1;" parent="1" source="zjo078G5RI25TfbY9cQv-58" target="zjo078G5RI25TfbY9cQv-76" edge="1">
          <mxGeometry relative="1" as="geometry" />
        </mxCell>
        <mxCell id="zjo078G5RI25TfbY9cQv-58" value="Phân tích da" style="ellipse;whiteSpace=wrap;html=1;" parent="1" vertex="1">
          <mxGeometry x="335" y="230" width="90" height="60" as="geometry" />
        </mxCell>
        <mxCell id="zjo078G5RI25TfbY9cQv-84" style="edgeStyle=orthogonalEdgeStyle;rounded=0;orthogonalLoop=1;jettySize=auto;html=1;entryX=0;entryY=0.5;entryDx=0;entryDy=0;" parent="1" source="zjo078G5RI25TfbY9cQv-60" target="zjo078G5RI25TfbY9cQv-66" edge="1">
          <mxGeometry relative="1" as="geometry" />
        </mxCell>
        <mxCell id="zjo078G5RI25TfbY9cQv-60" value="Qua ảnh" style="ellipse;whiteSpace=wrap;html=1;" parent="1" vertex="1">
          <mxGeometry x="540" y="120" width="90" height="60" as="geometry" />
        </mxCell>
        <mxCell id="zjo078G5RI25TfbY9cQv-88" style="edgeStyle=orthogonalEdgeStyle;rounded=0;orthogonalLoop=1;jettySize=auto;html=1;" parent="1" source="zjo078G5RI25TfbY9cQv-66" target="zjo078G5RI25TfbY9cQv-87" edge="1">
          <mxGeometry relative="1" as="geometry" />
        </mxCell>
        <mxCell id="zjo078G5RI25TfbY9cQv-66" value="Gợi ý cách chăm sóc&lt;span style=&quot;color: rgba(0, 0, 0, 0); font-family: monospace; font-size: 0px; text-align: start; text-wrap: nowrap;&quot;&gt;%3CmxGraphModel%3E%3Croot%3E%3CmxCell%20id%3D%220%22%2F%3E%3CmxCell%20id%3D%221%22%20parent%3D%220%22%2F%3E%3CmxCell%20id%3D%222%22%20value%3D%22Qua%20%E1%BA%A3nh%22%20style%3D%22ellipse%3BwhiteSpace%3Dwrap%3Bhtml%3D1%3B%22%20vertex%3D%221%22%20parent%3D%221%22%3E%3CmxGeometry%20x%3D%22710%22%20y%3D%2280%22%20width%3D%2290%22%20height%3D%2260%22%20as%3D%22geometry%22%2F%3E%3C%2FmxCell%3E%3C%2Froot%3E%3C%2FmxGraphModel%3E&lt;/span&gt;" style="ellipse;whiteSpace=wrap;html=1;" parent="1" vertex="1">
          <mxGeometry x="740" y="160" width="90" height="60" as="geometry" />
        </mxCell>
        <mxCell id="zjo078G5RI25TfbY9cQv-70" value="Online" style="ellipse;whiteSpace=wrap;html=1;" parent="1" vertex="1">
          <mxGeometry x="540" y="400" width="90" height="60" as="geometry" />
        </mxCell>
        <mxCell id="zjo078G5RI25TfbY9cQv-71" value="Đặt lịch trực tiếp" style="ellipse;whiteSpace=wrap;html=1;" parent="1" vertex="1">
          <mxGeometry x="540" y="300" width="90" height="60" as="geometry" />
        </mxCell>
        <mxCell id="zjo078G5RI25TfbY9cQv-90" style="edgeStyle=orthogonalEdgeStyle;rounded=0;orthogonalLoop=1;jettySize=auto;html=1;entryX=0;entryY=0.5;entryDx=0;entryDy=0;" parent="1" source="zjo078G5RI25TfbY9cQv-76" target="zjo078G5RI25TfbY9cQv-66" edge="1">
          <mxGeometry relative="1" as="geometry" />
        </mxCell>
        <mxCell id="zjo078G5RI25TfbY9cQv-76" value="Qua khảo sát" style="ellipse;whiteSpace=wrap;html=1;" parent="1" vertex="1">
          <mxGeometry x="540" y="210" width="90" height="60" as="geometry" />
        </mxCell>
        <mxCell id="zjo078G5RI25TfbY9cQv-87" value="Gợi ý sản phẩm" style="ellipse;whiteSpace=wrap;html=1;" parent="1" vertex="1">
          <mxGeometry x="870" y="160" width="90" height="60" as="geometry" />
        </mxCell>
        <mxCell id="Yxggnad04uX287QkhcIc-1" value="Cẩm nang" style="ellipse;whiteSpace=wrap;html=1;" vertex="1" parent="1">
          <mxGeometry x="335" y="470" width="90" height="60" as="geometry" />
        </mxCell>
      </root>
    </mxGraphModel>
  </diagram>
</mxfile>
